<!-- icon666.com - MILLIONS vector ICONS FREE --><svg id="Layer_1" enable-background="new 0 0 512 512" viewBox="0 0 512 512" xmlns="http://www.w3.org/2000/svg" xmlns:xlink="http://www.w3.org/1999/xlink"><linearGradient id="SVGID_1_" gradientUnits="userSpaceOnUse" x1="71.675" x2="440.339" y1="463.166" y2="94.502"><stop offset="0" stop-color="#fcb131"></stop><stop offset=".2137" stop-color="#fba72f"></stop><stop offset=".5775" stop-color="#f78c2a"></stop><stop offset="1" stop-color="#f26522"></stop></linearGradient><path d="m444.9 105.7h-97.7v-14.4c.1-50.4-40.9-91.3-91.3-91.3s-91.3 40.9-91.3 91.3v14.4h-97.5c-8.8 0-16 7.2-16 16s7.2 16 16 16h17.8v316.9c0 31.6 29 57.4 64.7 57.4h212.9c35.7 0 64.7-25.7 64.7-57.4v-316.9h17.8c8.8 0 16-7.2 16-16s-7.2-16-16.1-16zm-248.3-14.4c0-32.7 26.6-59.3 59.3-59.3s59.3 26.6 59.3 59.3v14.4h-118.6zm198.5 363.3c0 13.8-15 25.4-32.7 25.4h-212.8c-17.7 0-32.7-11.6-32.7-25.4v-316.9h278.2zm-228.2-32.5v-222c0-8.8 7.2-16 16-16s16 7.2 16 16v222c0 8.8-7.2 16-16 16s-16-7.1-16-16zm73 0v-222c0-8.8 7.2-16 16-16s16 7.2 16 16v222c0 8.8-7.2 16-16 16-8.7 0-16-7.1-16-16zm73.1 0v-222c0-8.8 7.2-16 16-16s16 7.2 16 16v222c0 8.8-7.2 16-16 16s-16-7.1-16-16z" fill="url(#SVGID_1_)"></path></svg>