<!-- icon666.com - MILLIONS vector ICONS FREE --><svg id="Capa_1" enable-background="new 0 0 512 512" viewBox="0 0 512 512" xmlns="http://www.w3.org/2000/svg"><g><path d="m336.817 426.713h-273.11c-8.385 0-15.182-6.797-15.182-15.182v-396.349c0-8.385 6.798-15.182 15.182-15.182h273.11c8.385 0 15.182 6.797 15.182 15.182v396.349c0 8.385-6.797 15.182-15.182 15.182z" fill="#309ada"></path><path d="m336.817 0h-20.4c8.385 0 15.182 6.797 15.182 15.182v396.349c0 8.385-6.797 15.182-15.182 15.182h20.4c8.385 0 15.182-6.797 15.182-15.182v-396.349c0-8.385-6.797-15.182-15.182-15.182z" fill="#0088d4"></path><path d="m392.555 469.357h-273.11c-8.385 0-15.182-6.797-15.182-15.182v-396.35c0-8.385 6.797-15.182 15.182-15.182h273.11c8.385 0 15.182 6.797 15.182 15.182v396.349c0 8.385-6.797 15.183-15.182 15.183z" fill="#9ff497"></path><path d="m392.555 42.643h-20.4c8.385 0 15.182 6.797 15.182 15.182v396.349c0 8.385-6.797 15.182-15.182 15.182h20.4c8.385 0 15.182-6.797 15.182-15.182v-396.349c0-8.384-6.797-15.182-15.182-15.182z" fill="#6ce79a"></path><path d="m448.293 512h-273.11c-8.385 0-15.182-6.797-15.182-15.182v-396.349c0-8.385 6.797-15.182 15.182-15.182h273.11c8.385 0 15.182 6.797 15.182 15.182v396.349c-.001 8.385-6.798 15.182-15.182 15.182z" fill="#ff5cab"></path><path d="m448.293 85.287h-20.4c8.385 0 15.182 6.797 15.182 15.182v396.349c0 8.385-6.797 15.182-15.182 15.182h20.4c8.385 0 15.182-6.797 15.182-15.182v-396.349c0-8.385-6.798-15.182-15.182-15.182z" fill="#ff3b9b"></path><path d="m424.292 308.223h-225.109c-4.804 0-8.699-3.895-8.699-8.699v-174.623c0-4.804 3.895-8.699 8.699-8.699h225.109c4.805 0 8.699 3.895 8.699 8.699v174.623c0 4.804-3.895 8.699-8.699 8.699z" fill="#fbf7f7"></path><path d="m424.292 116.202h-22.606c4.804 0 8.699 3.895 8.699 8.699v174.623c0 4.804-3.895 8.699-8.699 8.699h22.606c4.804 0 8.699-3.895 8.699-8.699v-174.623c0-4.805-3.895-8.699-8.699-8.699z" fill="#f7ebe7"></path><g fill="#ff5cab"><path d="m318.922 268.344-44.113-116.89c-.026-.07-.054-.142-.083-.212-1.613-3.92-5.392-6.451-9.63-6.451-.003 0-.007 0-.01 0-4.243.004-8.021 2.543-9.629 6.47-.024.058-.047.118-.069.177l-44.517 116.885c-1.519 3.987.483 8.451 4.471 9.97.904.345 1.834.508 2.749.508 3.113 0 6.047-1.895 7.221-4.979l9.192-24.134h60.862l9.1 24.113c1.506 3.992 5.966 6.008 9.957 4.5 3.991-1.506 6.006-5.964 4.499-9.957zm-78.533-34.108 24.685-64.814 24.46 64.814z"></path><path d="m405.384 191.49c-4.268 0-7.726 3.459-7.726 7.726v4.892c-6.737-5.228-15.185-8.352-24.353-8.352-21.949 0-39.806 17.857-39.806 39.807 0 21.949 17.857 39.806 39.806 39.806 9.168 0 17.616-3.124 24.353-8.352v4.892c0 4.268 3.459 7.726 7.726 7.726s7.726-3.459 7.726-7.726v-72.691c0-4.269-3.459-7.728-7.726-7.728zm-32.08 68.426c-13.429 0-24.353-10.925-24.353-24.353s10.925-24.354 24.353-24.354 24.353 10.926 24.353 24.354-10.924 24.353-24.353 24.353z"></path></g><g><g><path d="m388.113 356.817h-149.392c-4.268 0-7.726-3.459-7.726-7.726 0-4.268 3.459-7.726 7.726-7.726h149.392c4.268 0 7.726 3.459 7.726 7.726.001 4.267-3.458 7.726-7.726 7.726z" fill="#fbf7f7"></path></g><g><path d="m417.339 395.06h-46.743c-4.268 0-7.726-3.459-7.726-7.726s3.459-7.726 7.726-7.726h46.743c4.268 0 7.726 3.459 7.726 7.726s-3.459 7.726-7.726 7.726z" fill="#fbf7f7"></path></g><g><path d="m340.462 395.06h-130.966c-4.268 0-7.726-3.459-7.726-7.726s3.459-7.726 7.726-7.726h130.967c4.268 0 7.726 3.459 7.726 7.726s-3.459 7.726-7.727 7.726z" fill="#fbf7f7"></path></g><g><path d="m417.339 433.302h-142.359c-4.268 0-7.726-3.459-7.726-7.726s3.459-7.726 7.726-7.726h142.359c4.268 0 7.726 3.459 7.726 7.726s-3.459 7.726-7.726 7.726z" fill="#fbf7f7"></path></g><g><path d="m243.846 433.302h-34.35c-4.268 0-7.726-3.459-7.726-7.726s3.459-7.726 7.726-7.726h34.35c4.268 0 7.726 3.459 7.726 7.726s-3.459 7.726-7.726 7.726z" fill="#fbf7f7"></path></g><g><path d="m417.339 471.544h-207.843c-4.268 0-7.726-3.459-7.726-7.726 0-4.268 3.459-7.726 7.726-7.726h207.843c4.268 0 7.726 3.459 7.726 7.726 0 4.268-3.459 7.726-7.726 7.726z" fill="#fbf7f7"></path></g></g></g></svg>