<!-- icon666.com - MILLIONS vector ICONS FREE --><svg viewBox="0 0 64 64" xmlns="http://www.w3.org/2000/svg"><g id="Twotone"><g id="Color_copy" data-name="Color copy"><g><path d="m54 3h-11v16a4 4 0 0 1 -4 4h-24a2 2 0 0 1 -2-2v-13l-5.828 5.828a4 4 0 0 0 -1.172 2.829v40.343a4 4 0 0 0 4 4h4v-32h36v32h4a4 4 0 0 0 4-4v-50a4 4 0 0 0 -4-4z" fill="#a8dba8" style="fill: rgb(135, 201, 135);"></path><path d="m39 47a18 18 0 0 1 -18-18h-7v32h36v-14z" fill="#cff09e" style="fill: rgb(167, 204, 113);"></path><g fill="#79bd9a"><path d="m43 3v16a4 4 0 0 1 -4 4h10a2 2 0 0 0 2-2v-18z" fill="#79bd9a"></path><path d="m54 47h4v6h-4z" fill="#79bd9a"></path><path d="m6 47h4v6h-4z" fill="#79bd9a"></path><path d="m14 55h36v6h-36z" fill="#79bd9a"></path></g><path d="m25 7v-4h-5.343a4 4 0 0 0 -2.829 1.172l-3.828 3.828v13a2 2 0 0 0 2 2h24a4 4 0 0 0 4-4v-4h-10a8 8 0 0 1 -8-8zm-1 10a1 1 0 0 1 -1 1h-4a1 1 0 0 1 -1-1v-8a1 1 0 0 1 1-1h4a1 1 0 0 1 1 1z" fill="#cff09e" style="fill: rgb(167, 204, 113);"></path></g></g><g id="Stroke_Close_copy" data-name="Stroke Close copy"><g fill="#3b8686"><path d="m54 2h-34.343a4.966 4.966 0 0 0 -3.535 1.464l-9.658 9.658a4.966 4.966 0 0 0 -1.464 3.535v40.343a5.006 5.006 0 0 0 5 5h44a5.006 5.006 0 0 0 5-5v-50a5.006 5.006 0 0 0 -5-5zm-10 2h6v17a1 1 0 0 1 -1 1h-6.026a4.948 4.948 0 0 0 1.026-3zm-26.464.878a3.02 3.02 0 0 1 2.121-.878h22.343v15a3 3 0 0 1 -3 3h-24a1 1 0 0 1 -1-1v-12.586zm-10.536 43.122h2v4h-2zm42 6h-34v-24h34zm-34 6v-4h34v4zm39 0h-3v-31a1 1 0 0 0 -1-1h-36a1 1 0 0 0 -1 1v31h-3a3 3 0 0 1 -3-3v-3h3a1 1 0 0 0 1-1v-6a1 1 0 0 0 -1-1h-3v-29.343a3.02 3.02 0 0 1 .878-2.121l4.122-4.122v10.586a3 3 0 0 0 3 3h34a3 3 0 0 0 3-3v-17h2a3 3 0 0 1 3 3v39h-3a1 1 0 0 0 -1 1v6a1 1 0 0 0 1 1h3v3a3 3 0 0 1 -3 3zm3-8h-2v-4h2z" fill="#3b8686"></path><path d="m19 19h4a2 2 0 0 0 2-2v-8a2 2 0 0 0 -2-2h-4a2 2 0 0 0 -2 2v8a2 2 0 0 0 2 2zm0-10h4v8h-4z" fill="#3b8686"></path><path d="m20 50h24a1 1 0 0 0 0-2h-24a1 1 0 0 0 0 2z" fill="#3b8686"></path><path d="m20 44h24a1 1 0 0 0 0-2h-24a1 1 0 0 0 0 2z" fill="#3b8686"></path><path d="m25 38h19a1 1 0 0 0 0-2h-19a1 1 0 0 0 0 2z" fill="#3b8686"></path></g></g></g></svg>